<?xml version="1.0" encoding="utf-8"?>
<!-- Generator: Adobe Illustrator 22.0.1, SVG Export Plug-In . SVG Version: 6.00 Build 0)  -->
<svg version="1.1" xmlns="http://www.w3.org/2000/svg" xmlns:xlink="http://www.w3.org/1999/xlink" x="0px" y="0px"
	 viewBox="0 0 400 250" style="enable-background:new 0 0 400 250;" xml:space="preserve">
<style type="text/css">
	.st0{fill:#5A5B5D;}
	.st1{fill:#F58320;}
	.st2{font-family:'Chivo-Bold';}
	.st3{font-size:33.6513px;}
	.st4{display:none;fill:#5A5B5D;}
	.st5{fill:#FFFFFF;}
	.st6{font-family:'Roboto-Bold';}
	.st7{font-size:8.4209px;}
</style>
<g id="Gear_Iocn_1_">
</g>
<g id="Logo_x5F_2">
</g>
<g id="Logo_x5F_1">
	<g>
		<rect x="118.8" y="150.5" class="st1" width="211.6" height="15.9"/>
		<path class="st0" d="M119.6,145.4c-0.3,0-0.6,0-1,0c-11.3,0-20.4-9.1-20.4-20.4c0-11.3,9.1-20.4,20.4-20.4c0.3,0,0.7,0,1,0v-29
			c-1.1,0-2.2,0-3.3,0c-0.7,0-1.3,0.5-1.6,1.2c-1.3,3.5-2.2,6.9-2.8,10.4c-0.1,0.6-0.5,1.1-1,1.3c-1.3,0.3-2.6,0.6-3.9,1.1
			c-0.6,0.1-1.3-0.1-1.6-0.6c-2.1-2.7-4.4-5.3-7-7.7c-0.5-0.5-1.3-0.6-1.9-0.3c-1.5,0.7-2.9,1.6-4.3,2.5c-0.6,0.4-0.9,1.1-0.8,1.8
			c0.7,3.7,1.5,7.1,2.8,10.4c0.2,0.6,0.1,1.3-0.4,1.8c-0.9,0.8-1.7,1.7-2.5,2.5c0,0,0,0,0,0c-0.5,0.5-1.3,0.7-1.9,0.4
			c-3.2-1.3-6.5-2.4-9.9-3.2c-0.7-0.2-1.4,0.1-1.8,0.7c-0.9,1.4-1.7,2.8-2.5,4.3c-0.3,0.6-0.3,1.4,0.2,1.9c2.4,2.8,4.9,5.4,7.6,7.7
			c0.5,0.5,0.7,1.2,0.6,1.8c-0.3,1-0.6,2-0.8,3c0,0.1-0.1,0.3-0.1,0.4c-0.2,0.7-0.8,1.2-1.5,1.3c-3.4,0.5-6.8,1.2-10.2,2.2
			c-0.7,0.2-1.2,0.8-1.2,1.5c-0.1,1.7-0.1,3.3,0,5c0,0.7,0.5,1.3,1.1,1.6c3.5,1.3,6.9,2.2,10.4,2.8c0.7,0.1,1.3,0.7,1.4,1.4
			c0,0,0,0,0,0c0,0.2,0.1,0.4,0.1,0.5c0,0.1,0.1,0.3,0.1,0.4l0,0c0.2,0.6,0.3,1.2,0.5,1.8l0,0c0.1,0.2,0.1,0.4,0.2,0.6
			c0.2,0.7,0,1.4-0.6,1.9c-2.7,2.1-5.3,4.4-7.8,7c-0.5,0.5-0.6,1.3-0.3,1.9c0.7,1.5,1.6,2.9,2.5,4.3c0.4,0.6,1.1,0.9,1.8,0.8
			c3.7-0.7,7.1-1.5,10.4-2.7c0.7-0.3,1.4-0.1,1.9,0.5c0.2,0.2,0.4,0.5,0.7,0.7l0,0c0.4,0.4,0.9,0.9,1.3,1.3l0,0
			c0.1,0.1,0.3,0.3,0.4,0.4c0.5,0.5,0.7,1.3,0.4,1.9c-1.3,3.2-2.4,6.5-3.2,9.9c-0.2,0.7,0.1,1.4,0.7,1.8c1.4,0.9,2.8,1.7,4.3,2.5
			c0.6,0.3,1.4,0.3,1.9-0.2c2.8-2.4,5.4-4.9,7.7-7.6c0.5-0.6,1.2-0.8,1.9-0.5c0.2,0,0.3,0.1,0.5,0.1c0.7,0.2,1.5,0.4,2.3,0.6l0,0
			c0.2,0,0.4,0.1,0.6,0.2c0.7,0.2,1.2,0.8,1.3,1.5c0.4,3.4,1.2,6.9,2.1,10.2c0.2,0.7,0.8,1.2,1.5,1.2c1.3,0.1,2.6,0.1,3.9,0V145.4z"
			/>
		<g>
			<text transform="matrix(1 0 0 1 128.127 112.0669)"><tspan x="0" y="0" class="st0 st2 st3">Ash gear </tspan><tspan x="0" y="31.2" class="st0 st2 st3">and supply</tspan></text>
		</g>
		<path class="st4" d="M118.6,145.4c-11.3,0-20.4-9.1-20.4-20.4c0-11.3,9.1-20.4,20.4-20.4c0.3,0,0.6,0,0.9,0V77.6
			c0-1-0.8-1.8-1.8-1.7c0,0,0,0,0,0c-0.4,0-0.8,0-1.2,0c-0.7,0-1.3,0.5-1.5,1.1c-1.3,3.4-2.2,7-2.9,10.5c-0.1,0.7-0.7,1.2-1.4,1.4
			c-1.2,0.3-2.3,0.6-3.5,0.9c0,0-0.1,0-0.1,0c-1.1,0.4-2.3,0.8-3.4,1.3c-0.7,0.3-1.4,0.1-1.9-0.4c-2.4-2.5-5-4.9-7.7-7
			c-0.6-0.4-1.4-0.5-2-0.1c-1.4,0.9-2.7,1.9-4.1,2.9c-0.6,0.4-0.8,1.2-0.6,1.9c1,3.6,2.2,6.9,3.8,10.1c0.3,0.7,0.2,1.4-0.3,2
			c-0.8,0.9-1.6,1.8-2.3,2.8c-0.8,0.9-1.4,2-2,3c-0.4,0.6-1.1,0.9-1.8,0.8c-3.3-0.6-6.8-1-10.4-1.1c-0.8,0-1.4,0.4-1.7,1.1
			c-0.6,1.6-1.2,3.1-1.6,4.7c-0.2,0.7,0.1,1.4,0.6,1.8c2.8,2.3,5.9,4.3,9.1,5.9c0.6,0.3,1,1,0.9,1.7c-0.1,1.2-0.1,2.4-0.2,3.6
			c0,0.1,0,0.1,0,0.2c0.1,1.2,0.1,2.4,0.2,3.5c0.1,0.7-0.3,1.4-1,1.7c-3.1,1.5-6.2,3.2-9.1,5.2c-0.6,0.4-0.9,1.2-0.7,1.9
			c0.4,1.6,0.9,3.2,1.5,4.8c0.2,0.7,0.9,1.1,1.6,1.1c3.7,0.2,7.4,0,10.8-0.5c0.7-0.1,1.4,0.2,1.7,0.8c0.6,1.1,1.2,2.1,2,3.1
			c0.7,1,1.5,1.9,2.3,2.8c0.5,0.5,0.6,1.4,0.2,2c-1.7,3-3,6.2-4.3,9.5c-0.3,0.7,0,1.5,0.5,1.9c1.3,1.1,2.6,2.1,4,3
			c0.6,0.4,1.3,0.4,1.9,0c3.1-2,5.9-4.3,8.5-6.7c0.5-0.5,1.3-0.6,1.9-0.4c1.1,0.5,2.3,0.9,3.4,1.3c0,0,0.1,0,0.1,0
			c1.1,0.3,2.3,0.7,3.5,0.9c0.7,0.2,1.2,0.8,1.3,1.5c0.4,3.4,1.2,6.8,2.1,10.2c0.2,0.7,0.8,1.2,1.6,1.3c0.7,0,1.3,0.1,2,0.1
			c0,0,0,0,0,0c1,0,1.8-0.8,1.8-1.7v-27C119.2,145.4,118.9,145.4,118.6,145.4z"/>
		<g>
			<text transform="matrix(1 0 0 1 128.0798 161.4243)" class="st5 st6 st7">World&apos;s largest Gear Tool Inventory </text>
		</g>
		<rect x="118" y="71.1" class="st1" width="1.8" height="107.8"/>
		<path class="st1" d="M118.3,116.1c-4.8,0.1-8.7,4.1-8.7,9c0,4.9,3.9,8.8,8.7,9V116.1z"/>
	</g>
</g>
</svg>
